<!--?xml version="1.0" encoding="utf-8"?-->
<!-- Generator: Adobe Illustrator 15.1.0, SVG Export Plug-In . SVG Version: 6.00 Build 0)  -->

<svg version="1.1" id="_x32_" xmlns="http://www.w3.org/2000/svg" xmlns:xlink="http://www.w3.org/1999/xlink" x="0px" y="0px" width="512px" height="512px" viewBox="0 0 512 512" style="width: 256px; height: 256px; opacity: 1;" xml:space="preserve">
<style type="text/css">

	.st0{fill:#4B4B4B;}

</style>
<g>
	<rect x="243.625" class="st0" width="24.766" height="81.391" style="fill: rgb(75, 75, 75);"></rect>
	<path class="st0" d="M328.125,358.406C343.719,404,389.891,482.719,418.438,512c-26.578,0-68.625,0-102.453,0
		c-1.875-22.406-29.688-51.969-59.984-51.969S197.891,489.594,196.016,512c-33.828,0-75.875,0-102.453,0
		c28.547-29.281,74.719-108,90.313-153.594H328.125z" style="fill: rgb(75, 75, 75);"></path>
	<path class="st0" d="M211.422,267.438h89.156c-3.063-17.781-5-34.719-6.203-50.375h-76.75
		C216.422,232.719,214.484,249.656,211.422,267.438z" style="fill: rgb(75, 75, 75);"></path>
	<path class="st0" d="M219.438,137.563h73.125c-0.234-16.594,0.078-30.5,0.078-40.875h-30.813h-11.641h-30.828
		C219.359,107.063,219.672,120.969,219.438,137.563z" style="fill: rgb(75, 75, 75);"></path>
	<rect x="196.078" y="156.563" class="st0" width="119.859" height="41.484" style="fill: rgb(75, 75, 75);"></rect>
	<rect x="163.5" y="286.453" class="st0" width="185.016" height="56.109" style="fill: rgb(75, 75, 75);"></rect>
</g>
</svg>
